<?xml version="1.0" encoding="UTF-8"?>
<svg xmlns="http://www.w3.org/2000/svg" xmlns:xlink="http://www.w3.org/1999/xlink"
     width="1180" height="350" viewBox="-590.0 -175.0 1180 350">
<defs>
</defs>
<g style="transform: matrix3d(1,0,0,0,
                                            0,1,0,-0.00125,
                                            0,0,1,0,
                                            0,0,0,1.25)">
<path d="M-590.0,175.0 L-550.0,175.0 L-550.0,-0.0 L-530.0,87.5 L-490.0,87.5 L-470.0,-0.0 L-470.0,175.0 L-430.0,175.0 L-430.0,-175.0 L-470.0,-175.0 L-510.0,-0.0 L-550.0,-175.0 L-590.0,-175.0 Z" fill="black" />
<path d="M-400.0,175.0 L-360.0,175.0 L-320.0,-94.79166666666669 L-280.0,175.0 L-240.0,175.0 L-300.0,-175.0 L-340.0,-175.0 Z" fill="black" />
<path d="M-355.0,85.625 L-285.0,85.625 L-285.0,45.625 L-355.0,45.625 Z" fill="black" />
<path d="M-210.0,175.0 L-50.0,175.0 L-50.0,135.0 L-170.0,135.0 L-170.0,-175.0 L-210.0,-175.0 Z" fill="black" />
<path d="M-20.0,175.0 L20.0,175.0 L20.0,-40.0 L80.0,-40.0 L80.0,-0.0 L20.0,-0.0 L20.0,-135.0 L80.0,-135.0 L80.0,-175.0 L-20.0,-175.0 Z" fill="black" />
<path d="M80.0,-175.0 A60.0,87.5,0,1,1,79.99999999999999,-0.0 L80.0,-40.0 A20.0,47.5,0,0,0,80.0,-135.0 Z" fill="black" />
<path d="M170.0,-175.0 L210.0,-175.0 L210.0,175.0 L170.0,175.0 Z" fill="black" />
<path d="M240.0,175.0 L280.0,175.0 L280.0,-43.75 L360.0,175.0 L400.0,175.0 L400.0,-175.0 L360.0,-175.0 L360.0,43.75 L280.0,-175.0 L240.0,-175.0 Z" fill="black" />
<path d="M430.0,-175.0 L470.0,-175.0 L590.0,175.0 L550.0,175.0 Z" fill="black" />
<path d="M590.0,-175.0 L550.0,-175.0 L430.0,175.0 L470.0,175.0 Z" fill="black" />
</g>
</svg>